<svg width="24" height="24" viewBox="0 0 24 24" fill="none" xmlns="http://www.w3.org/2000/svg">
<path d="M10.98 5.64218C12.0607 5.2686 13.2378 5.2686 14.3184 5.64218L22.8525 8.59253C23.7542 8.90531 23.7542 10.1653 22.8525 10.4781L14.3184 13.4284C13.2378 13.802 12.0607 13.802 10.98 13.4284L4.79391 11.2878C4.56635 11.4542 4.39557 11.6852 4.30433 11.9499C4.45229 12.0512 4.57345 12.186 4.65759 12.3432C4.74174 12.5003 4.78641 12.6752 4.78784 12.8529C4.78928 13.0307 4.74742 13.2062 4.66582 13.3647C4.58421 13.5231 4.46524 13.6599 4.31892 13.7634L4.32342 13.7834L5.30596 18.1523C5.3278 18.2495 5.32728 18.3503 5.30444 18.4473C5.2816 18.5443 5.23701 18.635 5.17397 18.7127C5.11094 18.7904 5.03105 18.8531 4.9402 18.8963C4.84936 18.9394 4.74986 18.9619 4.64906 18.962H2.68285C2.58195 18.962 2.48233 18.9397 2.39134 18.8966C2.30035 18.8535 2.22032 18.7908 2.15716 18.7131C2.094 18.6354 2.04931 18.5446 2.02641 18.4476C2.0035 18.3505 2.00296 18.2496 2.02482 18.1523L3.00737 13.7823L3.01298 13.7634C2.85564 13.6524 2.73 13.5031 2.64823 13.33C2.56645 13.1569 2.53132 12.9659 2.54623 12.7754C2.56114 12.585 2.62558 12.4016 2.73332 12.243C2.84107 12.0844 2.98845 11.9559 3.16121 11.8701C3.2439 11.5129 3.40193 11.1769 3.62497 10.884L2.44591 10.477C1.54309 10.1642 1.54309 8.9042 2.44591 8.59142L10.98 5.64218Z" fill="#0C4DA2"/>
<path d="M6.57002 12.5033L6.20017 15.5265C6.13667 16.0414 6.34165 16.5745 6.77946 16.8889C8.06837 17.8173 10.1694 18.9621 12.8174 18.9621C15.019 18.9691 17.1615 18.2349 18.9144 16.8729C19.3211 16.554 19.496 16.0448 19.438 15.5607L19.0637 12.5021L14.4729 14.1447C13.4007 14.5284 12.233 14.5284 11.1609 14.1447L6.57002 12.5033Z" fill="#0C4DA2"/>
</svg>
