<svg width="24" height="24" viewBox="0 0 24 24" fill="none" xmlns="http://www.w3.org/2000/svg">
<path fill-rule="evenodd" clip-rule="evenodd" d="M21.0408 15.5273C21.0408 19.6753 17.2822 21.54 12.0204 21.54C6.75862 21.54 3 19.6753 3 15.5566C3 11.0471 5.25545 8.76235 9.76497 6.47759L8.16828 3.50335C8.07302 3.35438 8.01997 3.18234 8.01479 3.00559C8.00962 2.82884 8.05251 2.65399 8.13889 2.4997C8.22528 2.34541 8.35192 2.21746 8.50531 2.12949C8.6587 2.04151 8.8331 1.99682 9.00989 2.00018H15.3841C15.5498 2.00442 15.7117 2.05075 15.8546 2.13482C15.9974 2.21889 16.1166 2.33793 16.2007 2.48074C16.2849 2.62354 16.3314 2.78542 16.3357 2.95113C16.3401 3.11684 16.3022 3.28094 16.2257 3.42798L14.2759 6.47759C18.784 8.73165 21.0408 11.0164 21.0408 15.5273ZM9.169 11.0722H11.518C11.7134 11.1309 11.959 11.2397 12.1558 11.4212C12.3031 11.5548 12.412 11.7254 12.4712 11.9152H9.1704C9.07875 11.9152 8.98801 11.9333 8.90334 11.9684C8.81867 12.0034 8.74174 12.0548 8.67694 12.1196C8.61214 12.1844 8.56074 12.2614 8.52567 12.346C8.4906 12.4307 8.47255 12.5215 8.47255 12.6131C8.47255 12.7047 8.4906 12.7955 8.52567 12.8801C8.56074 12.9648 8.61214 13.0417 8.67694 13.1065C8.74174 13.1713 8.81867 13.2228 8.90334 13.2578C8.98801 13.2929 9.07875 13.3109 9.1704 13.3109H12.2507C12.0109 13.5774 11.7067 13.7778 11.3672 13.893C10.9297 14.0528 10.4693 14.1409 10.0036 14.1539H9.9827C9.84064 14.1541 9.702 14.1975 9.58531 14.2786C9.46862 14.3596 9.37944 14.4743 9.32967 14.6073C9.27991 14.7404 9.27194 14.8855 9.30683 15.0232C9.34171 15.1609 9.41779 15.2847 9.52491 15.378L9.5277 15.3808L9.53468 15.385L9.55282 15.4017C9.65187 15.4857 9.75381 15.5663 9.85848 15.6432C11.062 16.5419 12.4307 17.195 13.8865 17.565C13.9762 17.5896 14.0699 17.5961 14.1621 17.5839C14.2543 17.5718 14.3431 17.5413 14.4234 17.4944C14.5037 17.4474 14.5738 17.3849 14.6295 17.3105C14.6853 17.236 14.7256 17.1512 14.7481 17.061C14.7706 16.9707 14.7749 16.8769 14.7606 16.785C14.7464 16.6931 14.7139 16.605 14.6651 16.5258C14.6163 16.4466 14.5521 16.378 14.4764 16.324C14.4007 16.27 14.315 16.2316 14.2242 16.2112C13.3705 15.9922 12.5493 15.6619 11.7818 15.2286L11.8571 15.2007C12.3289 15.0235 12.8481 14.7415 13.2528 14.2851C13.4971 14.013 13.6883 13.6878 13.8069 13.3109H14.8704C15.0555 13.3109 15.233 13.2374 15.3639 13.1065C15.4948 12.9757 15.5683 12.7982 15.5683 12.6131C15.5683 12.428 15.4948 12.2505 15.3639 12.1196C15.233 11.9888 15.0555 11.9152 14.8704 11.9152H13.9018C13.8577 11.6207 13.7643 11.3357 13.6255 11.0722H14.8704C15.0555 11.0722 15.233 10.9987 15.3639 10.8678C15.4948 10.737 15.5683 10.5595 15.5683 10.3744C15.5683 10.1893 15.4948 10.0118 15.3639 9.88093C15.233 9.75006 15.0555 9.67654 14.8704 9.67654H9.1704C8.98532 9.67654 8.80781 9.75006 8.67694 9.88093C8.54607 10.0118 8.47255 10.1893 8.47255 10.3744C8.47255 10.5595 8.54607 10.737 8.67694 10.8678C8.80781 10.9987 8.98532 11.0722 9.1704 11.0722H9.169Z" fill="#0C4DA2"/>
</svg>
