<svg width="64" height="64" viewBox="0 0 64 64" fill="none" xmlns="http://www.w3.org/2000/svg">
<path d="M35.9991 51.2536H5.99811C4.89408 51.2536 3.99805 50.3728 3.99805 49.2875C3.99805 48.2021 4.89408 47.3213 5.99811 47.3213H35.9991C37.1031 47.3213 37.9992 48.2021 37.9992 49.2875C37.9992 50.3728 37.1031 51.2536 35.9991 51.2536Z" fill="#0C4DA2"/>
<path d="M50.3417 11.6119L39.2274 15.5894L25.1709 8.47583C24.0889 7.92923 22.8228 7.84862 21.6808 8.25955L17.9407 9.59851C17.1767 9.87181 16.9746 10.8411 17.5667 11.3877L26.893 20.0054L12.6005 25.1194C11.5185 25.5068 10.3244 25.4419 9.29239 24.9405L7.27233 23.9594C6.20429 23.4403 4.96625 23.3735 3.84622 23.7746L0.718113 24.8933C-0.0179109 25.1568 -0.239918 26.073 0.296099 26.6353L2.50017 28.9475C5.56027 32.1563 9.79441 34.038 14.2686 34.1776L15.7706 34.2247C17.9227 34.2916 20.0667 33.9514 22.0888 33.2259L58.198 20.2532C59.7961 19.681 60.7761 17.9783 60.2541 16.3877C58.914 12.304 54.4099 10.1648 50.3457 11.6197L50.3417 11.6119Z" fill="#0C4DA2"/>
<path d="M40.0289 30.963L36.5228 39.1423C36.0608 40.2492 35.1407 41.1006 33.9947 41.5115L30.2546 42.8505C29.4846 43.1257 28.7005 42.5064 28.7925 41.7199L29.6346 34.681L40.0289 30.963Z" fill="#0C4DA2"/>
<path d="M52.9994 33.5582C46.9232 33.5582 41.999 38.3989 41.999 44.3721C41.999 50.3454 46.9232 55.1861 52.9994 55.1861C59.0756 55.1861 63.9997 50.3454 63.9997 44.3721C63.9997 38.3989 59.0756 33.5582 52.9994 33.5582ZM56.6675 47.9781C56.2775 48.3615 55.7655 48.5542 55.2535 48.5542C54.7414 48.5542 54.2294 48.3615 53.8394 47.9781L51.5853 45.7622C51.2093 45.3926 50.9993 44.8932 50.9993 44.3721V39.9502C50.9993 38.8649 51.8953 37.9841 52.9994 37.9841C54.1034 37.9841 54.9994 38.8649 54.9994 39.9502V43.5562L56.6675 45.196C57.4495 45.9647 57.4495 47.2093 56.6675 47.9781Z" fill="#0C4DA2"/>
</svg>
